# xmcd CD database file
#
# Track frame offsets:
#	150
#	40961
#	64044
#	98609
#	121131
#	138853
#	157042
#	182137
#	206111
#	231141
#	253228
#	269493
#	291539
#
# Disc length: 4281 seconds
#
# Revision: 0
# Processed by: cddbd v1.5.1PL2 Copyright (c) Steve Scherf et al.
# Submitted via: CDex 1.51
#
DISCID=c610b70d
DTITLE=Higher Ground  - Hurricane Relief Concert (1|2)
DYEAR=2005
DGENRE=Jazz
TTITLE0=Wynton Marsalis Septet - Ain' No
TTITLE1=Renee Fleming with Mark O'Conn - Amazing Grace
TTITLE2=Shirley Caesar - You're Next for a Miracle-He's Working It Out for You-This Joy
TTITLE3=Art and Aaron Neville - Go To The Mardi Gras
TTITLE4=Herbie Hancock - Eye of the Hurricane
TTITLE5=Bette Midler, Lincoln Center J - Is That All There Is
TTITLE6=Abbey Lincoln - For All We Know
TTITLE7=Joe Lovano - Blackwell's Message
TTITLE8=Diana Krall - Basin Street Blues
TTITLE9=Marcus Roberts - New Orleans' Blues
TTITLE10=Paul Simon - That Was Your Mother
TTITLE11=Dianne Reeves - The House I Live In
TTITLE12=Irvin Mayfield, Jr. - Just A Closer Walk With Thee
EXTD=YEAR: 2005
EXTT0=
EXTT1=
EXTT2=
EXTT3=
EXTT4=
EXTT5=
EXTT6=
EXTT7=
EXTT8=
EXTT9=
EXTT10=
EXTT11=
EXTT12=
PLAYORDER=
